<?xml version="1.0" encoding="utf-8"?>
<!-- Generator: Adobe Illustrator 26.0.2, SVG Export Plug-In . SVG Version: 6.00 Build 0)  -->
<svg version="1.1" id="Layer_1" xmlns="http://www.w3.org/2000/svg" xmlns:xlink="http://www.w3.org/1999/xlink" x="0px" y="0px"
	 viewBox="0 0 302.7 42.5" style="enable-background:new 0 0 302.7 42.5;" xml:space="preserve">
<style type="text/css">
	.st0{fill:#515151;}
</style>
<g id="a">
	<path class="st0" d="M23.2,19.6c-2.3,0-5.1,0.1-7.5,0.3c-1.5,0.1-2.9,0.3-4.3,0.5c-4.6,6-8.9,12.1-9.8,14.4C0.8,36-0.2,35.3,0,33.9
		C0.3,32.2,4,26.5,8.2,21c-2.8,0.6-4.8,1.4-5.5,2.2c-0.9,0.4-1.2-1.3-0.1-2.1c2.3-1.2,4.7-1.9,7.2-2.2c0.9-1.1,1.7-2.1,2.6-3.1
		C17.9,9.2,24.2,2.3,26.1,1c0.4-0.7,4.1-1.1,4.5,0.8C31.1,4.7,27.7,14,27.3,18c1.6,0.4,1.6,2.2,0.4,1.8c-0.3-0.1-0.5-0.1-0.8-0.1
		c-1.1,4.8-3,12.6-0.6,13.1c0.9,0.1,1,1,0.1,1c-2.5,0.1-4.7-1.8-4.8-4.4c0-0.1,0-0.2,0-0.3C21.6,27.1,22.3,23.5,23.2,19.6z M27,2.4
		C25.9,3.5,19.9,9.9,14.9,16l-1.9,2.4l2.8-0.3c2.9-0.2,5.7-0.3,7.9-0.3C25.1,11.4,27.1,4.6,27,2.4L27,2.4z"/>
	<path class="st0" d="M32.9,25.4c0,0,8.3-11.4,12.2-12.6c2-0.6,4.6,0.9,3.7,3.1c-1.4,3.6-7.8,13.9-3.6,12.9
		c1.6-0.4,6.5-5.8,9.4-10.2c0.7-0.5,1.1,0.5,0.9,0.9c-2.2,4.1-5.8,8.4-8.4,10.3s-6.5-0.1-6.3-2.8c0.3-4.8,6-11.8,4.6-11.8
		c-2.4-0.1-12.5,13-13,14.5c-1.2,1.1-4.1,0-3.6-1.3s6.2-12.7,6.7-14.9c0.5-0.8,2.7,0.1,2.5,1.2C37.8,16.3,32.9,25.4,32.9,25.4z"/>
	<path class="st0" d="M59.7,15.3c-0.3,1.1-1.1,2-2.7,5.1c-2.7,5.2-3.4,8.8-1.5,8.5c2.6-0.5,8.4-8.2,9.7-10.2
		c0.3-0.2,0.7-0.1,0.9,0.2c0.1,0.1,0.1,0.2,0.1,0.4c-1,2.8-6,9.2-8.4,10.6c-1.8,1.2-4.2,0.9-5.7-0.6c-1.1-1.2-1.2-3.8,1-8.2
		c1.9-3.9,3.6-5.8,3.7-7.1C57.4,13.1,60,14,59.7,15.3z M59.6,7.1c1.1-0.9,2.7-0.9,3.9-0.1c0.7,0.5,0.2,1.5-0.4,2.1
		c-1,0.6-2.1,0.9-3.3,0.7C58.7,9.6,58.4,8,59.6,7.1z"/>
	<path class="st0" d="M64.4,26c0,0,8.8-11.5,12.3-12.8c1.3-0.5,3.6,0.7,3.2,2.3c-0.3,2.3-3.8,8.8-4.6,10.8c0,0,9.1-11.2,12.9-12.6
		c1.9-0.7,3.5,1.3,3,2.3c-1.2,2.5-6.3,12-4.4,12.9c1.1,0.6,8.3-8,9.7-10.4c0.6-0.6,1.2,0.2,1,0.7C96.9,21,91,29,88.6,30.1
		s-5.4-0.4-5.4-2.4c0.1-3.9,5-11.5,4.6-11.7c-1.2-0.6-12.4,12.5-12.9,14s-4-0.2-3.4-1.8s6-12.6,4.7-12.6c-1.1,0-11.6,12.5-11.9,14.1
		c-0.8,1-3.9-0.3-3.8-1.5c0.1-2,7-13,7.5-15c0.8-0.8,2.8,0.1,2.6,1.1C70.1,16.1,64.4,26,64.4,26z"/>
	<path class="st0" d="M108.1,17.8c0.6,0.6,1,1.4,0.6,1.9c-0.9,1.3-1.6,2.6-2.2,4c-1.2,2.8-1.4,5.4,0.4,5.2c2.2-0.3,8.3-8.2,9.5-10.1
		c0.3-0.2,0.7-0.2,0.9,0c0.1,0.1,0.2,0.2,0.2,0.4c-1,1.9-5.7,8.7-8.5,10.6c-2.4,1.6-4.5,0.4-5.8-1c-0.9-0.9-0.6-3.6,0.2-5.4
		c-1.3,2-4.8,6-6.9,7.1c-1.3,0.6-4.1-1-4.4-2.6c-0.4-2.2,1.6-7.1,5-10.9c3.4-3.8,6.3-5.1,8.5-5.6c2.5-0.5,6.3,2,5.7,3.6
		C110.7,16.4,109.5,17.3,108.1,17.8z M107.8,17.5c0.1-0.9,1.9-3.5,0.7-4.2s-6.2,2.2-8.7,5.6c-4.1,5.6-5.2,9.6-4.2,9.8
		c1.8,0.3,8.9-8,10.7-11.3C106.6,16.9,107.2,17.1,107.8,17.5L107.8,17.5z"/>
	<path class="st0" d="M122.5,12.5c2.2,0,4.1,0,4.3,0.3c0.3,0.3,0.3,0.8,0,1.1c-0.2,0.2-0.4,0.3-0.7,0.2c-1.4-0.2-2.9-0.3-4.4-0.2
		c-0.3,0.6-0.6,1.2-0.9,1.8c-2.6,5.9-6,14.2-2.6,13.1c1.8-0.6,8-8.4,9.4-10.3c0.4-0.3,1.2-0.1,1,0.7c-0.8,1.8-6.6,9.8-9.1,11
		c-1.7,0.8-5.4,0-5.8-2.6c-0.3-2.4,1-6.5,4.7-13.7c-1.5,0-2.7,0-3.1,0c-1,0-0.8-1.1,0.2-1.5c1.2,0.1,2.4,0.1,3.6,0
		c2.8-5.4,4.1-7.4,4.4-8.3c0.9-0.7,2.7,0.4,2.5,1.4S124.1,9.4,122.5,12.5z"/>
	<path class="st0" d="M132.8,15.3c-0.3,1.1-1.1,2-2.7,5.1c-2.7,5.2-3.4,8.8-1.5,8.5c2.5-0.5,8.4-8.2,9.7-10.2
		c0.3-0.2,0.7-0.1,0.9,0.2c0.1,0.1,0.1,0.3,0.1,0.4c-1,2.8-6,9.2-8.4,10.6c-1.8,1.2-4.2,0.9-5.7-0.6c-1.1-1.2-1.2-3.8,1-8.2
		c1.9-3.9,3.5-5.8,3.7-7.1C130.5,13.1,133.1,14,132.8,15.3z M132.7,7.1c1.1-0.9,2.7-0.9,3.9-0.1c0.7,0.5,0.2,1.5-0.4,2.1
		c-1,0.6-2.1,0.9-3.3,0.7C131.8,9.6,131.5,8,132.7,7.1z"/>
	<path class="st0" d="M148.5,14c1.6,0,3.3,0.8,3.2,3.5c0,1.6-1.3,5.2-3.4,8.4h0.3c3.9-0.2,8-7,8.5-7.7c0.4-0.6,1.1-0.3,0.9,0.6
		c-0.5,0.8-2.6,5.4-6.3,7.6c-1.3,0.8-2.9,1.2-4.5,1c-1.2,1.6-2.7,2.8-4.5,3.6c-2.7,1-7.1-1.5-7.3-4.8c-0.3-5.4,4.1-13.5,9.1-14.3
		c1.4-0.2,3.6,0.6,4.1,1.7C148.7,13.9,148.7,14,148.5,14z M148.3,14c-0.8-0.2-1.7-0.2-2.5-0.1c-3.1,0.7-7.8,8.3-7.5,13.9
		c0.1,2.5,2.3,2,3.5,1.1c1.1-0.8,2-1.7,2.9-2.7c-0.3-0.3-0.6-0.7-0.9-1.1c-2.4-3.5-0.2-8.4,2.7-10.5C146.9,14.2,147.6,14,148.3,14
		L148.3,14z M145.5,25c2.1-2.7,3.7-6.1,4-8.8c0.1-1.5-1.9-1.1-3.5,1C144.1,19.6,143.6,23.3,145.5,25L145.5,25z"/>
	<path class="st0" d="M156.5,25.4c0,0,8.3-11.4,12.1-12.6c1.4-0.5,3,0.2,3.6,1.6c0.2,0.5,0.2,1,0.1,1.5c-1,3-6.3,13-4.6,14.1
		c1,0.6,4.4-1.8,6.6-5.3c0.6-0.8,0.9-0.2,0.8,0.5c-0.8,2.2-3.5,5.8-4.8,6.4c-2.2,1.1-6-0.8-6.1-3.7c-0.2-4.3,6-13.2,4.6-13.2
		c-2.4-0.1-12.5,13.5-13,15c-0.7,1.5-3.9-0.1-3.6-1.3c0.5-1.3,5.7-13.4,6.7-14.9c0.7-1,3.1,0.1,2.5,1.2
		C160.9,15.9,156.5,25.4,156.5,25.4z"/>
	<path class="st0" d="M191.3,15.8c2.6-5.7,6.3-13.2,7.1-14.8c1.1-0.9,3.4,0.6,2.8,1.4c-0.9,1.3-3.4,7-6.2,13.3
		c3.7,0,8.9,0.2,12.4,0.2c2.6-5.8,6.6-14.1,7.4-15.5c0.5-1.1,2.5,0,2.7,1.4c-0.8,1.3-3.5,7.4-6.6,14.2c0.1,0,0.3,0,0.4,0
		c0.7-0.1,0.7,1.4-0.3,1.6c-0.2-0.1-0.5-0.1-0.7-0.1c-2.5,5.5-6.3,13.8-5.8,14.9c-0.7,0.9-3.3,0-3.3-1.5s3.6-9.1,5.7-13.5
		c-3.7-0.1-9,0-12.6,0c-0.1,0.2-0.2,0.5-0.3,0.7c-2.6,5.5-6.7,15.9-6.3,17c-1,0.6-2.2,0.2-2.7-0.7c-0.1-0.3-0.2-0.5-0.3-0.8
		c0-1.8,4-11.5,6-16c-2.9,0.2-5.4,0.7-6,1.3c-0.4,0-0.7-1.2,0.3-1.8S188.5,15.9,191.3,15.8z"/>
	<path class="st0" d="M220.9,15.3c-0.3,1.1-1.2,2-2.7,5.1c-2.7,5.2-3.4,8.8-1.5,8.5c2.5-0.5,8.5-8.2,9.7-10.2
		c0.3-0.2,0.7-0.1,0.9,0.2c0.1,0.1,0.1,0.3,0.1,0.4c-1,2.8-6,9.2-8.4,10.6c-1.8,1.2-4.2,0.9-5.7-0.6c-1.1-1.2-1.2-3.8,1-8.2
		c1.9-3.9,3.5-5.8,3.7-7.1C218.6,13.1,221.2,14,220.9,15.3z M220.8,7.1c1.1-0.9,2.7-0.9,3.9-0.1c0.7,0.5,0.2,1.5-0.4,2.1
		c-1,0.6-2.1,0.9-3.3,0.7C219.9,9.6,219.6,8,220.8,7.1z"/>
	<path class="st0" d="M221,25.4c1.9-2.3,6.2-7.9,8.2-10.3c0.3-0.7,0.7-1.3,1.1-1.9c0.9-1.3,2.3-2.1,3.8-2.3c1.8-0.1,2.5,1.8,1.6,2.6
		c-1.4-0.1-4.3,1.5-4.3,4.8c0,2.9,2.3,6,1.5,8.8c3.2-2.4,6.5-7.4,7.6-8.7c0.3-0.5,1,0,0.9,0.8c-1.9,3.4-4.4,6.5-7.5,9
		c-1.5,1.3-3.4,2.1-5.4,2.3c-1.7,0.3-3.4,0.1-5-0.3c-1.4-0.4-3.1-1.1-3.7-2.6c-0.2-0.5-0.1-1,0.2-1.5
		C220.3,25.8,220.6,25.6,221,25.4z M223.7,24.6c0.8-0.2,1.7-0.2,2.5-0.1c0.3,0.1,0.3,0.4,0,0.7c-0.9,0.1-3.8,1.3-4.2,2.7
		c0.6,0.5,1.3,0.9,2.1,1.1c1.6,0.7,3.5,0.4,4.8-0.8c1.8-1.8,0.6-5.5,0-7.5c-0.2-0.7-0.4-1.4-0.5-2.2C227,20.4,225.2,22.7,223.7,24.6
		z"/>
	<path class="st0" d="M246.5,12.5c2.2,0,4.1,0,4.3,0.3c0.3,0.3,0.3,0.8,0,1.1c-0.2,0.2-0.4,0.3-0.7,0.2c-1.4-0.2-2.9-0.3-4.4-0.2
		c-0.3,0.6-0.6,1.2-0.9,1.8c-2.6,5.9-6,14.2-2.6,13.1c1.8-0.6,8-8.4,9.4-10.3c0.4-0.3,1.2-0.1,1,0.7c-0.8,1.8-6.6,9.8-9.1,11
		c-1.7,0.8-5.4,0-5.8-2.6c-0.3-2.4,1-6.5,4.7-13.7c-1.5,0-2.7,0-3.1,0c-1,0-0.8-1.1,0.2-1.5c1.2,0.1,2.4,0.1,3.6,0
		c2.8-5.4,4.1-7.4,4.4-8.3c0.9-0.7,2.7,0.4,2.5,1.4S248.1,9.4,246.5,12.5z"/>
	<path class="st0" d="M261.8,14c1.6,0,3.3,0.8,3.2,3.5c0,1.6-1.4,5.2-3.4,8.4h0.3c3.9-0.2,8-7,8.5-7.7s1.1-0.3,0.9,0.6
		c-0.5,0.8-2.6,5.4-6.3,7.6c-1.3,0.8-2.9,1.2-4.5,1c-1.2,1.6-2.7,2.8-4.5,3.6c-2.7,1-7.2-1.5-7.3-4.8c-0.3-5.4,4.1-13.5,9.1-14.3
		c1.4-0.2,3.6,0.6,4.1,1.7C262,13.9,262,14,261.8,14z M261.6,14c-0.8-0.2-1.7-0.2-2.5-0.1c-3.1,0.7-7.8,8.3-7.5,13.9
		c0.1,2.5,2.3,2,3.5,1.1c1.1-0.8,2-1.7,2.9-2.7c-0.3-0.3-0.6-0.7-0.9-1.1c-2.4-3.5-0.2-8.4,2.7-10.5C260.2,14.2,260.9,14,261.6,14
		L261.6,14z M258.8,25c2.1-2.7,3.7-6.1,4-8.8c0.1-1.5-1.9-1.1-3.5,1C257.3,19.6,256.9,23.3,258.8,25L258.8,25z"/>
	<path class="st0" d="M279,13.8c1.5,0.4,2.9,1,1.3,3c-2.4,3.2-6.3,11.6-3.8,12c1.4,0.3,7.9-7.6,9.6-10.1c0.3-0.3,1.2-0.3,1.1,0.4
		c-1.1,2.4-5.7,8.4-8.6,10.6c-2,1.5-5.7,0.4-6-2.4c-0.6-3.6,3.2-9.6,4.2-11.5c0.6-1-0.8-1.1-2.2-1.3c-1.2,1.8-3.4,5.1-5.1,7.6
		c-0.6,0.5-1.5,0-1.3-0.6c0.9-1.4,3.8-5.5,4.8-7.4c-0.3-0.1-0.5-0.3-0.5-0.6c-0.5-1.5,1.7-5.8,2.8-6.2c0.7-0.3,2.2,0.9,2,1.8
		c-0.5,1.6-1.1,3.2-2,4.6C276.3,13.6,277.6,13.7,279,13.8z"/>
	<path class="st0" d="M293.6,32.3c3.8-0.3,7-0.3,8,0.1s0.6,0.8-0.2,1.1c-0.7-0.3-4.6-0.2-8.9,0.4c-3.5,4.7-8.2,8.5-12.8,8.5
		c-2.9,0-5.9-2.2-5-4.2c1.2-2.5,8.4-4.5,15.1-5.5c1.7-2.4,3.1-5,4.2-7.7c0.4-0.9,0.9-1.9,1.3-3c-2.6,3.5-6.4,7.9-7.9,8.1
		c-1.5,0.2-5-0.9-4.8-3.3c0.5-4.8,5.4-12.6,6.4-14c0.7-1,3.6-0.2,3.6,0.9c-1.8,2.5-3.4,5.2-4.7,8c-1.7,3.5-2.9,6.9-1.5,7
		c0.7,0.1,4-3.3,7.2-7c2.1-2.5,4-5.2,5.7-8c1.1-2.2,3.3-0.6,3.5,0.4c-0.5,0.4-3.4,5.9-6.2,12.8C295.7,28.8,294.7,30.6,293.6,32.3z
		 M288.3,34.7c-1.4,0.3-2.8,0.7-4.1,1.1c-6.2,2.2-8.4,4.7-6,5c2.1,0.3,5-0.4,9.5-5.3L288.3,34.7z"/>
</g>
</svg>
