<?xml version="1.0" encoding="utf-8"?>
<!-- Generator: Adobe Illustrator 26.0.2, SVG Export Plug-In . SVG Version: 6.00 Build 0)  -->
<svg version="1.1" id="Layer_1" xmlns="http://www.w3.org/2000/svg" xmlns:xlink="http://www.w3.org/1999/xlink" x="0px" y="0px"
	 viewBox="0 0 178.4 35.7" style="enable-background:new 0 0 178.4 35.7;" xml:space="preserve">
<style type="text/css">
	.st0{fill:#515151;}
</style>
<g id="Candeehub">
	<path class="st0" d="M21.8,2c-4,0.5-9.8,6.3-13.9,13.3C1.2,27,3.3,33.6,7.6,34.2c5.4,0.7,15-11.1,17.7-14.8
		c0.4-0.2,1.2,0.2,1.1,0.7c-0.9,2.3-8.7,12-13.5,14.6c-3.8,2.1-8.1,0.7-10.6-1.5C-0.6,30.7-1.2,25.8,3,17C8.2,6.7,16.4,0.4,19.8,0
		c2.6-0.2,8.2,2.5,6.8,5.4c-1.3,2.4-3.1,4.4-5.3,6c-1.1,0.9-2.3,0.5-1.3-0.7s4.9-7,3.7-8.2C23,2.1,22.3,1.9,21.8,2z"/>
	<path class="st0" d="M37,18.6c0.6,0.6,1,1.4,0.6,1.9c-0.9,1.3-1.6,2.6-2.2,4c-1.2,2.8-1.4,5.4,0.4,5.2c2.3-0.3,8.3-8.2,9.5-10.1
		c0.3-0.2,0.7-0.2,0.9,0c0.1,0.1,0.2,0.2,0.2,0.4c-1,1.9-5.7,8.7-8.4,10.6c-2.4,1.6-4.5,0.4-5.8-1c-0.9-0.9-0.6-3.6,0.2-5.4
		c-1.4,2-4.8,6-6.9,7.1c-1.3,0.6-4.1-1-4.4-2.6c-0.4-2.2,1.6-7.1,5-10.9s6.3-5.1,8.5-5.6c2.5-0.5,6.3,2,5.7,3.7
		C39.5,17.2,38.3,18.2,37,18.6z M36.6,18.3c0.1-0.9,1.9-3.5,0.7-4.2s-6.2,2.2-8.7,5.6c-4.1,5.6-5.2,9.6-4.2,9.8
		c1.8,0.3,8.9-8,10.7-11.3C35.5,17.8,36,18,36.6,18.3L36.6,18.3z"/>
	<path class="st0" d="M44.8,26.3c0,0,8.3-11.4,12.1-12.6c2-0.6,4.6,0.9,3.7,3.1c-1.4,3.6-7.8,13.9-3.6,12.9
		c1.6-0.4,6.5-5.8,9.4-10.2c0.7-0.5,1.1,0.5,0.9,0.9c-2.2,4.1-5.8,8.5-8.4,10.3s-6.5-0.1-6.3-2.8c0.3-4.8,6-11.8,4.6-11.8
		c-2.4-0.2-12.5,13-13,14.5c-1.1,1.1-4.1,0-3.6-1.3s6.2-12.7,6.7-14.9c0.5-0.8,2.7,0.1,2.5,1.2C49.6,17.1,44.8,26.3,44.8,26.3z"/>
	<path class="st0" d="M79.9,16.7c-2.9,5.9-5.5,14.5-2.5,12.9c1.9-1,8-8.5,9.2-10.3c0.4-0.3,1-0.1,1,0.7c-0.9,1.8-6.7,9.8-8.9,11
		c-1.5,0.9-5.3,0.3-5.7-2.6c-0.1-1.3,0-2.5,0.3-3.8c-2,2.7-4.6,5.7-6.2,6.5c-1.8,0.4-3.6-0.5-4.3-2.2c-1.1-3.2,4.2-13.3,8.6-15.3
		c2-0.8,4.3-0.4,6,1c2-3.8,4-8.4,6.5-12.4c1-1.2,4.5-1.3,3.9-0.3C87,3.2,85.2,5.5,79.9,16.7z M75,19.5l1.7-3.6
		c-0.8-0.9-2-1.2-3.1-0.8c-3.6,1.5-9.5,14.1-7.7,14.2C67.2,29.4,72.8,23.3,75,19.5L75,19.5z"/>
	<path class="st0" d="M87.2,24.4c-0.3,0.8-0.5,1.7-0.6,2.5c-0.2,1.4,0.8,2.7,2.2,3c4.5,0.5,10.3-7.8,12.4-10.5
		c0.5-0.6,1.2-0.4,1.2,0.2c-1.5,3.1-5.8,9.3-9.9,11.4c-2.8,1.5-7.6,0.2-8.7-3.1c-1.8-5,3.8-13.1,7.8-15c3.3-1.6,7,1.8,6.7,3.9
		C97.9,19.3,91.1,22.8,87.2,24.4z M88.1,22.4c4.3-2.3,9.5-6.7,7.4-7.8C94.2,14,90.2,18.1,88.1,22.4L88.1,22.4z"/>
	<path class="st0" d="M102.1,24.4c-0.3,0.8-0.5,1.7-0.6,2.5c-0.2,1.4,0.8,2.7,2.2,3c4.5,0.5,10.3-7.8,12.4-10.5
		c0.5-0.6,1.2-0.4,1.2,0.2c-1.5,3.1-5.8,9.3-9.9,11.4c-2.8,1.5-7.6,0.2-8.7-3.1c-1.8-5,3.8-13.1,7.8-15c3.3-1.6,7,1.8,6.7,3.9
		C112.8,19.3,106,22.8,102.1,24.4z M102.9,22.4c4.3-2.3,9.5-6.7,7.4-7.8C109,14,105.1,18.1,102.9,22.4L102.9,22.4z"/>
	<path class="st0" d="M122.2,13.5c-3.5,7.2-4.7,9.6-5.9,12c1.7-2.2,8.9-11.7,11.6-12.4c2.4-0.6,4.3,2.1,3.6,3.8
		c-1.4,3.8-6.2,13.1-3.4,12.9c1.9-0.1,7.2-6.8,9.5-10.4c0.6-0.5,1,0.1,0.9,0.9c-2,3.6-5.7,8.5-8,10.3c-1.8,1.4-4.4,1-5.8-0.9
		c-0.3-0.5-0.6-1-0.7-1.5c-0.2-4.5,5.4-12.5,4.1-12.6c-2.5-0.2-12.6,13.6-13.1,15c-0.8,1.5-4,0-3.6-1.2c0.6-2.1,3.3-7.6,7.4-16.1
		c2.5-5.1,4.9-9.9,5.2-11.2c0.5-1,3,0.7,2.7,1.9C126.7,4.9,125.5,6.6,122.2,13.5z"/>
	<path class="st0" d="M137.2,30c1.9,0.2,12.8-14.3,13-15.1c0.8-0.8,3.8,0.2,2.8,1.7s-7.1,12.8-4.2,13.1c1.7,0.2,8.2-7.8,9.8-10.2
		c0.6-0.6,1-0.4,1,0.8c-1.1,1.9-6.4,10.2-9.1,10.9c-2.3,0.6-5-1.1-5.4-2.7c-0.5-2.3,0.8-5.4,1-5.8c-0.4,0.6-4.7,6.8-7.9,8.4
		c-1.6,0.8-4.9-0.5-4.5-3.2c0.7-4.8,7-12.9,7.1-14c0.7-1,3.5,0,3.1,1.2C143.2,16.5,134.4,29.7,137.2,30z"/>
	<path class="st0" d="M154.6,28.6c2-5.4,4.3-10.6,6.9-15.7c2.7-5.1,5.3-9.3,5.4-10.3c0.7-1,2.8-0.2,2.6,1.1s-3.2,6.3-5,9.8
		c-3.2,6-4.6,9-5.1,10c0.5-0.8,4.9-7.2,9-9.3c2.5-1.2,5,1,5.2,2.6c-0.1,1.8-0.6,3.5-1.5,5c3.2-0.4,5.4-0.2,6.1,0.6
		c0.4,0.4,0.4,0.8,0.1,0.9c-2.3-0.5-4.7-0.5-7.1,0c-2.3,4-6,8-9.2,8.2c-1.7,0.1-3.4-0.4-4.8-1.4l-0.2,0.4
		C156.2,31.4,154.1,29.8,154.6,28.6z M166.7,24.5c-3.7,1.3-7.5,3.5-8.4,4.6c0.8,0.8,2,1,3,0.6C162.9,29.2,164.9,27,166.7,24.5
		L166.7,24.5z M160.2,25.3c2.4-1.3,5-2.3,7.6-2.9c2-3.5,3.2-6.9,1.8-6.9C167.6,15.6,163.2,21,160.2,25.3z"/>
</g>
</svg>
