<?xml version="1.0" encoding="utf-8"?>
<!-- Generator: Adobe Illustrator 26.0.2, SVG Export Plug-In . SVG Version: 6.00 Build 0)  -->
<svg version="1.1" id="Layer_1" xmlns="http://www.w3.org/2000/svg" xmlns:xlink="http://www.w3.org/1999/xlink" x="0px" y="0px"
	 viewBox="0 0 50 50" style="enable-background:new 0 0 50 50;" xml:space="preserve">
<style type="text/css">
	.st0{fill:#09EF8E;}
	.st1{clip-path:url(#SVGID_00000116199352737187289490000003791800826427716756_);}
	.st2{fill:#FFFFFF;}
	.st3{fill:#FFFFFF;stroke:#FFFFFF;stroke-width:0.6;}
	.st4{fill:#FFFFFF;stroke:#FFFFFF;}
</style>
<g id="Group_15" transform="translate(-101 -28)">
	<g id="Group_12" transform="translate(-62 -104)">
		<g id="Group_10" transform="translate(163 132)">
			<g id="Group_6" transform="translate(0 0)">
				<g id="Group_4">
					<path id="Rectangle_1" class="st0" d="M25,0L25,0c13.8,0,25,11.2,25,25l0,0c0,13.8-11.2,25-25,25l0,0C11.2,50,0,38.8,0,25l0,0
						C0,11.2,11.2,0,25,0z"/>
				</g>
			</g>
		</g>
		<g id="Group_11" transform="translate(169.556 145.205) rotate(-8)">
			<g>
				<g>
					<g>
						<defs>
							<polygon id="SVGID_1_" points="-1.8,0.6 31.5,-4.1 35.6,28 2.3,32.7 							"/>
						</defs>
						<clipPath id="SVGID_00000177454310458812490930000017199187415738190008_">
							<use xlink:href="#SVGID_1_"  style="overflow:visible;"/>
						</clipPath>
						
							<g id="Group_8" transform="translate(0 0)" style="clip-path:url(#SVGID_00000177454310458812490930000017199187415738190008_);">
							<path id="Path_7" class="st2" d="M31.7,18.2c-0.9-0.1-1.8-0.6-2.3-1.3l0.4-0.3c0.5,0.7,1.2,1.1,2.1,1.1
								c0.7,0,1.3-0.4,1.8-0.9c0-0.3,0-0.6,0-0.9c-0.2-3-7.1-4.1-8.4-3.7c-0.2,0.1-0.3,0.4-0.2,0.6c0.8,1.4,2.7,7.4,2.5,9.7
								c0,0.2,0.1,0.3,0.3,0.3c0.1,0,0.1,0,0.2,0c1.1-0.5,4.6-2.2,5.5-5.2c-0.5,0.3-1,0.5-1.6,0.6C31.8,18.2,31.7,18.2,31.7,18.2
								 M28.9,15.4c-0.3-0.1-0.4-0.5-0.2-1c0.2-0.4,0.5-0.7,0.8-0.6c0.3,0.1,0.4,0.5,0.2,1C29.6,15.3,29.2,15.5,28.9,15.4"/>
							<path id="Path_8" class="st3" d="M27.1,13.3l-0.3-0.6c-0.8-1.4,0-7.5,1.7-8.7c1.3-0.9,2.6-0.8,3.1-0.4
								c0.2,0.1,0.2,0.4,0.1,0.6c-0.3,0.6-2.3,0.6-3.1,0.5c-1.1,1.2-1.7,4.9-1.6,6.8c0.5-2,1.6-5.7,3.1-5.5C31,6.1,31.7,6.7,32,7.6
								c0.1,0.3,0,0.6-0.2,0.7c-0.2,0.1-0.5,0-0.8-0.2c-0.5-0.4-0.9-1-1.1-1.6c-1,0.3-2.1,3.7-2.6,6.1L27.1,13.3z M30.4,6.5
								c0.1,0.2,0.2,0.4,0.4,0.6c0.2,0.3,0.4,0.5,0.7,0.7c0-0.1,0-0.3-0.1-0.4C31.2,7,30.8,6.7,30.4,6.5 M29.1,4.2
								c0.7,0.1,1.4,0,2-0.2c-0.1-0.1-0.2-0.1-0.3-0.1C30.3,3.7,29.6,3.9,29.1,4.2"/>
							<path id="Path_9" class="st4" d="M24.9,14c-0.4-1-0.7-1.2-0.9-1.2c-0.7-0.1-1.3-0.1-2-0.1c-0.6,0-1.4,0.1-2.2,0.2
								C18.9,13,18,13.1,17,13.3c0.1-1,0-1.9-0.2-2.9C16,7.3,13.1,1,10.8,0.1C10.4,0,9.9,0,9.5,0.3C9.2,0.4,9.1,0.7,9,1.1
								c-0.2,1.3,1.4,3.5,3.3,6.1c0.7,1,1.5,2,2.2,3.1c0.7,1,1.3,2,1.8,3.1h-0.1C15,11.4,8.1,6.5,4,4.7C2.2,3.9,1.1,3.7,0.5,4
								C0.2,4.2,0,4.6,0,5c0,1.5,2.6,3.4,2.6,3.4c3.6,2.6,9.4,4.5,12.1,5.3c-1.2,0.3-2.4,0.6-3.6,1c-0.7,0.2-1.3,0.5-1.9,0.8
								c-0.9,0.4-1.8,0.9-2.6,1.6c-1.2,0.8-1.9,2.2-1.9,3.6c0.1,1.9,1.8,3.2,4.9,3.9c0.2,0,0.4,0.1,0.6,0.1c0.9,0.2,1.7,0.3,2.6,0.3
								c-0.1,0.7-0.1,1.5,0.1,2.2c0.2,1,0.9,1.7,1.9,2l0.2-0.5c-0.8-0.2-1.4-0.9-1.5-1.6c-0.2-0.7-0.2-1.3,0-2
								c0.7,0,1.5,0.1,2.2,0.1c0.2,0,0.5,0,0.7,0c-0.2,1.3,0.1,2.7,0.9,3.7l0.4-0.3c-0.8-1-1-2.2-0.8-3.4c0.7,0,1.4-0.1,2.1-0.1
								c0.4,0,0.8-0.1,1.2-0.1c-0.1,0.4,0,0.8,0.1,1.2c0.3,1,1,1.9,2,2.2l0.2-0.5c-0.8-0.3-1.5-1-1.7-1.9c-0.1-0.4-0.1-0.8,0-1.2
								c0.5-0.1,1.1-0.1,1.6-0.2c0.8-0.1,1.7-0.3,2.5-0.5c1-0.3,1.6-0.6,1.8-0.9C27.1,21.9,25.9,16.4,24.9,14 M9.7,24.1
								c-2.9-0.6-4.4-1.8-4.5-3.4c0-1.3,0.6-2.5,1.7-3.2c0.6-0.5,1.4-1,2.1-1.3c-0.6,2.7-0.3,5.5,0.9,8L9.7,24.1 M12.8,6.9
								C11,4.5,9.3,2.3,9.5,1.2c0-0.2,0.1-0.4,0.3-0.5c0.1-0.1,0.3-0.1,0.4-0.1c0.1,0,0.3,0,0.4,0.1c2.1,0.8,4.9,7,5.7,9.9
								c0.1,0.7,0.2,1.3,0.2,2C15.4,10.6,14.1,8.7,12.8,6.9 M2.9,7.9C2.1,7.3,0.5,5.8,0.5,5c0-0.2,0.1-0.4,0.3-0.5
								c0.1-0.1,0.3-0.1,0.5-0.1C2.2,4.5,3,4.7,3.8,5.1c4.3,1.9,10.7,6.5,11.9,8.3C13.8,12.9,6.9,10.8,2.9,7.9 M13.4,24.5
								c0.1-0.4,0.3-0.9,0.6-1.2L13.6,23c-0.4,0.5-0.6,1-0.7,1.6c-0.2,0-0.3,0-0.5,0c-1.1-1.3-1.7-3-1.8-4.7c0-1.5,0.1-3.1,0.5-4.6
								c1.2-0.4,2.3-0.8,3.5-1c-0.8,3.5-0.3,7.2,1.3,10.4C15,24.6,14.2,24.6,13.4,24.5 M20.7,24.3c0.1-0.2,0.2-0.4,0.3-0.5l-0.4-0.3
								c-0.2,0.3-0.4,0.6-0.4,0.9c-0.6,0.1-1.1,0.1-1.7,0.2c-1.3-1.6-2.1-3.6-2.2-5.7c0-1.7,0.1-3.4,0.5-5c1.1-0.2,2.1-0.3,3-0.4
								c-0.8,3.4,0.7,8.6,2.1,10.8C21.4,24.2,21,24.2,20.7,24.3 M25.9,23c-0.5,0.4-1.1,0.6-1.7,0.7c-1.4-1.4-2.3-3.2-2.5-5.2
								c-0.2-1.8-0.1-3.5,0.2-5.3c0.3,0,0.5,0,0.7,0c0.4,0,0.8,0,1.3,0.1c0,0,0.2,0.1,0.6,1C25.5,16.7,26.5,21.9,25.9,23"/>
						</g>
					</g>
				</g>
			</g>
		</g>
	</g>
</g>
</svg>
