<?xml version="1.0" encoding="utf-8"?>
<!-- Generator: Adobe Illustrator 26.0.2, SVG Export Plug-In . SVG Version: 6.00 Build 0)  -->
<svg version="1.1" id="Layer_1" xmlns="http://www.w3.org/2000/svg" xmlns:xlink="http://www.w3.org/1999/xlink" x="0px" y="0px"
	 viewBox="0 0 278.7 39.7" style="enable-background:new 0 0 278.7 39.7;" xml:space="preserve">
<style type="text/css">
	.st0{fill:#515151;}
</style>
<g id="fitmo">
	<path class="st0" d="M14.3,15.7c3.3-0.4,7-0.9,8.8-0.5c1.1,0.2,0.1,1.1-0.5,1.4c-1.9-0.4-6,0.6-9.5,1.3C9.2,25.3,7,31.3,6.8,33.1
		c-0.9,0.8-3.2-0.3-3.1-1.7c0-1.5,3.1-8,5.6-12.8c-0.4,0-0.7,0.1-1.1,0c-1.2,0-1.7-2.4-0.4-2.5c0.9,0.1,1.9,0.1,2.8,0l1.4-2.6
		c1.7-3.1,4.9-9.2,6.6-11.4c-0.5,0-1,0-1.5,0C7.7,2.6,2.2,5.1,2.1,8.7C-0.1,8.9-0.8,5.9,1,4.2c3.3-3.4,10.8-3.5,15.6-3.6
		c7.8-0.3,13.6,0.6,15.1-0.1c0.5,0.3,0.9,1.5-0.5,1.7s-5-0.1-10.3,0c0.6,0.4,1.2,0.4,0.8,1.4C18.9,7.4,16.5,11.5,14.3,15.7z"/>
	<path class="st0" d="M32.3,14.2c-0.3,1-1.2,2-2.7,5.1c-2.7,5.2-3.4,8.8-1.5,8.5c2.6-0.5,8.4-8.2,9.7-10.2c0.3-0.2,0.7-0.1,0.9,0.2
		c0.1,0.1,0.1,0.3,0.1,0.4c-1,2.8-6.1,9.2-8.4,10.6c-1.8,1.2-4.2,0.9-5.7-0.6c-1.1-1.2-1.2-3.8,1-8.3c1.9-3.9,3.6-5.8,3.7-7
		C30,11.9,32.6,12.9,32.3,14.2z M32.2,5.9c1.1-0.9,2.7-0.9,3.9-0.1c0.7,0.5,0.2,1.5-0.4,2.1c-1,0.6-2.1,0.9-3.3,0.7
		C31.2,8.4,31,6.8,32.2,5.9L32.2,5.9z"/>
	<path class="st0" d="M43.8,11.3c2.2,0,4.1,0,4.3,0.3c0.3,0.3,0.3,0.8,0,1.1C48,12.9,47.7,13,47.5,13c-1.4-0.2-2.9-0.3-4.4-0.2
		c-0.3,0.6-0.6,1.2-0.9,1.8c-2.6,5.9-6,14.2-2.6,13.1c1.8-0.6,8-8.4,9.4-10.3c0.2-0.3,0.6-0.3,0.9-0.1c0.3,0.2,0.3,0.6,0.1,0.9l0,0
		c-0.8,1.8-6.6,9.8-9.1,11c-1.7,0.8-5.4,0-5.8-2.6c-0.3-2.4,1-6.5,4.6-13.7c-1.5,0-2.7,0-3.1,0c-1,0-0.8-1.1,0.2-1.5
		c1.2,0.1,2.4,0.1,3.6,0C43.4,5.9,44.7,4,45,3c0.9-0.7,2.7,0.4,2.5,1.4S45.5,8.3,43.8,11.3z"/>
	<path class="st0" d="M48.4,24.3c0,0,8.3-11.4,12.1-12.6c2-0.6,4.6,0.9,3.7,3.1c-1.4,3.6-7.8,13.9-3.6,12.9
		c1.6-0.4,6.5-5.8,9.4-10.2c0.7-0.5,1.1,0.5,0.9,0.9c-2.2,4.1-5.8,8.5-8.4,10.3s-6.5-0.1-6.3-2.8c0.3-4.8,5.9-11.8,4.6-11.8
		c-2.4-0.1-12.5,13-13,14.5c-1.1,1.1-4.1,0-3.6-1.3s6.2-12.7,6.7-14.9c0.5-0.8,2.7,0.1,2.6,1.2C53.2,15.1,48.4,24.3,48.4,24.3z"/>
	<path class="st0" d="M71,22.4c-0.3,0.8-0.5,1.7-0.6,2.5c-0.2,1.4,0.8,2.7,2.2,3c4.5,0.5,10.3-7.8,12.4-10.5
		c0.5-0.6,1.2-0.4,1.2,0.2c-1.5,3.1-5.8,9.3-9.9,11.4c-2.8,1.5-7.6,0.1-8.7-3.1c-1.8-5,3.8-13.1,7.8-15c3.3-1.6,7,1.8,6.7,3.9
		C81.7,17.3,74.9,20.8,71,22.4z M71.8,20.4c4.3-2.4,9.5-6.7,7.3-7.8C77.9,11.9,74,16.1,71.8,20.4L71.8,20.4z"/>
	<path class="st0" d="M79.4,24.3c1.9-2.2,6.2-7.9,8.2-10.3c0.3-0.7,0.7-1.3,1.1-1.9c0.9-1.3,2.3-2.1,3.8-2.2
		c1.8-0.1,2.5,1.8,1.6,2.6c-1.4-0.1-4.3,1.5-4.3,4.8c0,2.9,2.3,6,1.5,8.8c3.2-2.4,6.5-7.4,7.6-8.7c0.3-0.5,1,0,0.9,0.8
		c-1.9,3.4-4.4,6.5-7.5,9c-1.5,1.3-3.4,2.1-5.4,2.3c-1.7,0.3-3.4,0.2-5-0.3c-1.4-0.4-3.1-1.1-3.7-2.6c-0.2-0.5-0.1-1,0.2-1.5
		C78.7,24.7,79.1,24.4,79.4,24.3z M82.1,23.5c0.8-0.2,1.7-0.2,2.5-0.1c0.3,0.1,0.3,0.4,0,0.7c-0.9,0.1-3.8,1.3-4.2,2.7
		c0.6,0.5,1.3,0.9,2.1,1.2c1.6,0.7,3.5,0.4,4.8-0.8c1.8-1.8,0.6-5.5,0-7.5c-0.2-0.7-0.4-1.4-0.5-2.2C85.4,19.3,83.7,21.5,82.1,23.5z
		"/>
	<path class="st0" d="M103.7,16c0.2,1.6,1.2,3.3,1.8,4.9c3.4-0.5,7.2-0.7,8.4-0.3c0.6,0.2,0.5,0.6,0.2,0.8c-2.7,0.1-5.5,0.4-8.2,1
		c0,0.4,0,0.8,0,1.1c-0.7,4-4.9,5.8-8.5,5.8s-5-1.1-5.5-2.4c-0.3-0.7-0.1-1.5,0.4-2c0.5-0.4,1-0.7,1.6-0.9c1.8-2.3,4.9-6.7,7-9.5
		c0-0.5,0.1-1,0.3-1.4c0.4-1.3,2.4-3,4.4-3.9c1.4-0.7,3.8,1,2.4,1.4C105.8,11.1,103.5,13.7,103.7,16z M103.2,23
		c-4.3,1-8.4,2.9-9.2,4.1c0.3,0.3,1,0.5,2.5,0.4C98.8,27.3,102.8,25.4,103.2,23z M101.1,16.8c-1.3,1.9-2.9,4.2-4.3,6.2
		c2-0.6,4.4-1.2,6.1-1.6h0C102.2,19.9,101.6,18.4,101.1,16.8L101.1,16.8z"/>
	<path class="st0" d="M135.8,27.5c0,0,3.7-5.1,8.3-10.8c7.5-9.4,11.8-13.8,13.1-15.1c0.8-0.8,2.1-0.8,2.9,0.1
		c0.3,0.3,0.5,0.7,0.5,1.1c-2.5,3.7-11,21.5-11.9,27c-0.1,0.8-0.7,4.5,0.8,4.5c0.5,0.4-0.1,1.2-1.1,1.1c-2.6-0.4-3.6-2.8-2.9-6.3
		c1.5-7.7,7.6-18.7,8.9-21.6c-3.4,3.3-6.5,6.9-9.3,10.8c-4.2,5.9-8.6,11.5-9,12.4c-0.8,1.1-4,1.4-4-0.8s2.5-16.4,2.5-23.9
		c-1.4,2.6-3.8,7.1-6,11.6c-3.5,7.2-7.1,15.1-7.2,16.1c-0.6,0.4-1.4,0.3-1.8-0.3c-0.3-0.4-0.3-0.9-0.2-1.3c0.9-3,5.2-11.6,7.1-15.3
		c1.5-3.3,6.7-13.5,7.8-15.8c0-0.6,3.6-0.5,4,2S135.8,27.5,135.8,27.5z"/>
	<path class="st0" d="M169.3,12.9c1.6,0,3.3,0.8,3.2,3.5c0,1.6-1.3,5.2-3.4,8.4h0.3c3.9-0.2,8-7,8.5-7.7c0.4-0.6,1.1-0.3,0.9,0.6
		c-0.5,0.8-2.6,5.4-6.3,7.6c-1.3,0.8-2.9,1.2-4.5,1c-1.1,1.6-2.7,2.8-4.5,3.6c-2.7,1-7.1-1.5-7.3-4.8c-0.3-5.4,4.1-13.5,9.1-14.2
		c1.4-0.2,3.6,0.6,4.1,1.7C169.5,12.7,169.4,12.8,169.3,12.9z M169.1,12.9c-0.8-0.2-1.7-0.3-2.5-0.1c-3.1,0.7-7.8,8.3-7.5,13.9
		c0.1,2.5,2.3,2,3.5,1.1c1.1-0.8,2-1.7,2.9-2.7c-0.3-0.3-0.6-0.7-0.9-1.1c-2.4-3.5-0.2-8.4,2.7-10.5
		C167.7,13.1,168.4,12.9,169.1,12.9L169.1,12.9z M166.3,23.8c2.1-2.7,3.7-6.1,4-8.8c0.1-1.5-1.9-1-3.5,1
		C164.8,18.5,164.4,22.1,166.3,23.8L166.3,23.8z"/>
	<path class="st0" d="M183.5,11.3c2.2,0,4.1,0,4.3,0.3c0.3,0.3,0.3,0.8,0,1.1c-0.2,0.2-0.5,0.3-0.7,0.2c-1.4-0.2-2.9-0.3-4.4-0.2
		c-0.3,0.6-0.6,1.2-0.9,1.8c-2.6,5.9-6,14.2-2.6,13.1c1.8-0.6,8-8.4,9.4-10.3c0.2-0.3,0.6-0.3,0.9-0.1c0.3,0.2,0.3,0.6,0.1,0.9
		c-0.8,1.8-6.6,9.8-9.1,11c-1.7,0.8-5.4,0-5.8-2.6c-0.3-2.4,1-6.5,4.7-13.7c-1.5,0-2.7,0-3.1,0c-1,0-0.8-1.1,0.2-1.5
		c1.2,0.1,2.4,0.1,3.6,0c2.8-5.4,4.1-7.3,4.4-8.3c0.9-0.7,2.7,0.4,2.5,1.4S185.1,8.3,183.5,11.3z"/>
	<path class="st0" d="M193.9,14.2c-0.3,1-1.1,2-2.7,5.1c-2.7,5.2-3.4,8.8-1.5,8.5c2.5-0.5,8.5-8.2,9.7-10.2c0.3-0.2,0.7-0.1,0.9,0.2
		c0.1,0.1,0.1,0.3,0.1,0.4c-1,2.8-6,9.2-8.4,10.6c-1.8,1.2-4.2,0.9-5.7-0.6c-1.1-1.2-1.2-3.8,1-8.3c1.9-3.9,3.6-5.8,3.7-7
		C191.6,11.9,194.2,12.9,193.9,14.2z M193.8,5.9c1.1-0.9,2.7-0.9,3.9-0.1c0.7,0.5,0.2,1.5-0.4,2.1c-1,0.6-2.1,0.9-3.3,0.7
		C192.8,8.4,192.6,6.8,193.8,5.9L193.8,5.9z"/>
	<path class="st0" d="M200.5,26.7c1.1,0.1,10.7-15.2,14.5-16.4c1.1-0.3,1.9,0.3,1.5,1c-3.2,0.9-14,17.1-15,18.5s-4.6-1-4.5-2.5
		c0.4-3,3.2-12.4,2.5-14.1c0.1-1.4,3.2-0.9,3.4,0.7C203,15.8,200.5,24.1,200.5,26.7z"/>
	<path class="st0" d="M226.8,16.6c0.6,0.6,1,1.4,0.6,1.9c-0.9,1.3-1.6,2.6-2.2,4c-1.2,2.8-1.3,5.4,0.4,5.2c2.2-0.3,8.3-8.2,9.5-10.1
		c0.3-0.2,0.7-0.2,0.9,0.1c0.1,0.1,0.1,0.2,0.2,0.4c-1,1.9-5.7,8.7-8.5,10.6c-2.4,1.6-4.5,0.4-5.8-1c-0.9-0.9-0.6-3.6,0.2-5.4
		c-1.3,2-4.8,6-6.9,7.1c-1.4,0.6-4.1-1-4.4-2.6c-0.4-2.2,1.6-7.1,5-10.9c3.6-3.9,6.3-5.1,8.5-5.6c2.5-0.5,6.3,2,5.7,3.6
		C229.4,15.2,228.2,16.1,226.8,16.6z M226.5,16.3c0.1-0.9,1.9-3.5,0.7-4.2s-6.2,2.2-8.7,5.6c-4.1,5.6-5.2,9.6-4.2,9.8
		c1.8,0.3,8.9-8,10.7-11.3C225.3,15.8,225.9,15.9,226.5,16.3z"/>
	<path class="st0" d="M241.2,11.3c2.2,0,4.1,0,4.3,0.3c0.3,0.3,0.3,0.8,0,1.1c-0.2,0.2-0.5,0.3-0.7,0.2c-1.4-0.2-2.9-0.3-4.4-0.2
		c-0.3,0.6-0.6,1.2-0.9,1.8c-2.6,5.9-6,14.2-2.6,13.1c1.8-0.6,8-8.4,9.4-10.3c0.2-0.3,0.6-0.3,0.9-0.1c0.3,0.2,0.3,0.6,0.1,0.9
		c-0.8,1.8-6.6,9.8-9.1,11c-1.7,0.8-5.4,0-5.8-2.6c-0.3-2.4,1-6.5,4.6-13.7c-1.5,0-2.7,0-3.1,0c-1,0-0.8-1.1,0.2-1.5
		c1.2,0.1,2.4,0.1,3.6,0c2.8-5.4,4.1-7.3,4.4-8.3c0.9-0.7,2.7,0.4,2.5,1.4S242.8,8.3,241.2,11.3z"/>
	<path class="st0" d="M256.5,12.9c1.6,0,3.3,0.8,3.2,3.5c0,1.6-1.4,5.2-3.4,8.4h0.3c3.9-0.2,8-7,8.5-7.7s1.1-0.3,0.9,0.6
		c-0.5,0.8-2.6,5.4-6.3,7.6c-1.3,0.8-2.9,1.2-4.5,1c-1.1,1.6-2.7,2.8-4.5,3.6c-2.7,1-7.1-1.5-7.4-4.8c-0.3-5.4,4.1-13.5,9.1-14.2
		c1.4-0.2,3.6,0.6,4.1,1.7C256.7,12.7,256.6,12.8,256.5,12.9z M256.3,12.9c-0.8-0.2-1.7-0.3-2.5-0.1c-3.1,0.7-7.8,8.3-7.5,13.9
		c0.1,2.5,2.3,2,3.5,1.1c1.1-0.8,2-1.7,2.9-2.7c-0.3-0.3-0.6-0.7-0.9-1.1c-2.4-3.5-0.2-8.4,2.7-10.5
		C254.9,13.1,255.6,12.9,256.3,12.9z M253.5,23.8c2.1-2.7,3.7-6.1,4-8.8c0.1-1.5-1.9-1-3.5,1C252,18.5,251.6,22.1,253.5,23.8z"/>
	<path class="st0" d="M273.6,12.7c1.5,0.4,2.7,1.3,1.2,3.1c-2.5,3.1-6.5,12.5-4,12.8c1.5,0.2,5.3-3.4,6.9-5.9
		c0.4-0.5,1.2-0.3,0.8,0.5c-1.1,2.4-4,6.6-5.5,7.1c-1.8,0.6-5.7-0.9-6-4.2s3.3-9.5,4.3-11.3c0.6-1-0.8-1.1-2.2-1.3
		c-1.3,2-4.1,6.2-5.2,7.5c-0.6,0.5-1.5,0.1-1.3-0.5c0.9-1.4,3.8-5.6,4.8-7.4c-0.2-0.1-0.4-0.3-0.5-0.6c-0.5-1.5,1.7-5.8,2.8-6.2
		c0.7-0.3,2.2,0.9,2,1.8c-0.4,1.5-1.1,3-1.9,4.3C269.8,12.4,272.9,12.5,273.6,12.7z"/>
</g>
</svg>
