<?xml version="1.0" encoding="utf-8"?>
<!-- Generator: Adobe Illustrator 26.0.2, SVG Export Plug-In . SVG Version: 6.00 Build 0)  -->
<svg version="1.1" id="Layer_1" xmlns="http://www.w3.org/2000/svg" xmlns:xlink="http://www.w3.org/1999/xlink" x="0px" y="0px"
	 viewBox="0 0 433.9 129.9" style="enable-background:new 0 0 433.9 129.9;" xml:space="preserve">
<style type="text/css">
	.st0{enable-background:new    ;}
	.st1{fill:#09EF8E;}
	.st2{clip-path:url(#SVGID_00000146486152540601999350000015040385824066655617_);}
	.st3{fill:#09EF8E;stroke:#09EF8E;stroke-width:0.6;stroke-miterlimit:4;}
	.st4{fill:#09EF8E;stroke:#09EF8E;stroke-width:1;stroke-miterlimit:4;}
</style>
<g id="Group_13" transform="translate(-382.068 -182.095)">
	<g class="st0">
		<path class="st1" d="M505.2,244.2c-0.6,2.2-6.2,12.3-10.4,21.4c4.2-3,10.9-8.2,17.4-13c7.5-5.6,14.8-10.7,17.7-11.2
			c3-0.4,2.9,3,1.8,4c-3.6,0.1-10.9,5-18.1,10.2c-6,4.4-12.1,9.1-15.8,11.5c1.9-0.1,3.8,0.1,5.2,1c2.9,1.8,5.2,5.5,7.2,9.4
			c3.5,6.8,6.2,14.3,9.8,13.7c0.6,0.6-3,4.1-6.5,3.8c-3.5-0.3-6.1-7.8-9.1-14.7c-1.9-4.5-4-8.7-6.6-10.3c-1.7-1.1-3.5-0.7-4.9,0.1
			c-2,5.1-9.2,21.9-9.1,25.1c-2.6,1.4-6.7-1.4-6.1-3.5c1.2-4.3,6.4-17.4,9-22.9c3.7-8.2,11.1-24.7,11.5-27.1
			C499.6,239.8,505.4,242.1,505.2,244.2z"/>
		<path class="st1" d="M541.7,269.3c1.5,1.2,2.7,2.8,2.2,3.5c-1.1,1.4-1.7,2.4-3.3,6c-1.9,4.3-2.7,6.9-1.2,6.8
			c2.4-0.2,12.3-11.9,14-14.8c0.9-1.4,2.8-0.8,1.9,0.9c-1.7,3.2-8.4,13-12.6,15.8c-3.5,2.4-7.1,0.4-9.1-1.7c-1.3-1.3-0.6-5.3,0.6-8
			c-2,3-6.3,9.1-10.1,11c-1.9,1-7.6-2.5-8-5c-0.6-3.3,2.4-10.7,7.5-16.3c5.3-5.9,9.5-7.6,12.8-8.4c3.7-0.8,11.5,4.5,10.5,7
			C546.2,267.8,543.3,269.1,541.7,269.3z M540.6,268.6c0.3-1.5,2.2-5,1.1-6c-1.2-1-8,2.7-12.5,8.7c-6.7,8.9-7.7,13.8-6.8,14.1
			c1.7,0.6,13-12,15.8-17C538.5,267.8,539.5,268,540.6,268.6z"/>
		<path class="st1" d="M566.7,263.2c2.3,0.2,5.5,2.4,3.1,5.4c-3.6,4.8-8.4,16.2-6.6,16.8c1.8,0.6,11.8-11,14.3-14.8
			c1.2-1.4,2.4-0.6,1.9,0.9c-1.7,3.9-8.6,12.6-12.9,15.9c-3,2.2-9.3,0.2-9.9-4c-0.9-5.4,4.8-14.1,6.3-16.8c0.7-1.2-0.7-1.6-2.5-1.9
			c-1.5,2.7-5.2,7.5-7.7,11.2c-1.1,1.4-2.7,0.1-2.4-0.9c1.9-2.6,5.5-8.1,7-10.9c-0.9-0.2-1.5-0.6-1.7-1.2c-0.8-2.3,2.5-8.7,4.2-9.4
			c1.9-0.8,4.7,1.3,4.5,2.7c-0.2,1.3-2,5-3.1,6.7C561.2,263.2,563.5,262.9,566.7,263.2z"/>
		<path class="st1" d="M580.6,278.5c-0.4,1.2-0.6,2.2-0.6,3.2c-0.1,2,0.4,4.2,2.7,4.5c6.4,0.6,15.3-11.8,18.4-15.8
			c0.8-0.9,2.8-0.9,2.2,0.7c-2.3,4.6-8.8,14-15,17.2c-5,2.6-12.2-0.6-14-5.5c-2.8-7.4,5.6-19.8,11.7-22.5c5.3-2.4,12,3,11.1,6.9
			C596.3,270.8,586.4,276.1,580.6,278.5z M582.2,274.8c3.9-2.4,8-6,9.9-8.5c2-2.6,0.4-3.7-2.2-1.4
			C587.5,267.1,584.2,270.9,582.2,274.8z"/>
		<path class="st1" d="M603.8,277.8c0,0,10.5-14.3,16.1-16c3-0.9,7.7,1.7,6.5,5.3c-2.1,5.8-9.9,19-6.5,18.6
			c2.1-0.2,9.8-8.4,14.1-15.1c1.2-1,2.1,0.1,1.7,1.3c-3.3,6.1-8.9,12.9-12.8,15.6c-3.8,2.7-10.2-0.4-10-4.6
			c0.4-6.9,8.4-17.1,7.1-17.2c-3-0.3-18.4,19.5-19.2,21.7c-1.7,1.7-7.3-0.8-6.6-2.8c0.6-2,9.4-19,10.1-22.4c1.7-1.2,5.6,0.9,5.4,2.7
			C609.3,267.3,603.8,277.8,603.8,277.8z"/>
		<path class="st1" d="M658.6,264.7c-9.3,16.2-7.2,27.6-0.6,27.4c8.6-0.1,21.6-15.5,26.1-21.7c1.2-1.3,2.6-0.2,1.9,1.2
			c-2,4.3-12.7,18.6-20.2,22.5c-5.8,3-12.7,0.6-16.4-2.7c-4.4-3.8-6.3-11.7,0.2-24.9c7.7-15.6,19.9-25,25-25.4
			c3.9-0.4,14,4.2,11.9,8.6c-2.7,5.1-6.3,7.5-8.1,8.9c-1.6,1.3-3.9,0.8-2.5-1.1c1.4-2.1,7.1-10.8,5.6-12.2
			C677,241.1,663.6,256,658.6,264.7z"/>
		<path class="st1" d="M695,261.6c-4.9,10.1-7.5,14.8-7.8,15.5c1.1-1.4,12-15,15.8-16.1c3.5-0.9,7.6,3.5,6.7,6.1
			c-2,5.6-8.1,17.9-6.2,18.6c1.5,0.5,10.6-9.9,14-15.3c1.4-1.2,2.3,0,1.7,1.3c-3,5.4-8.5,13.1-12,15.8c-4.1,3.2-10.1-0.5-10.4-3.9
			c-0.6-6.7,7.1-17.9,6.3-18.4c-2.7-1.4-18.4,19.9-19.2,22c-2.4,2.4-7.4-0.2-6.8-2.5c0.9-3.1,4.9-11.4,11.2-24.1
			c3.7-7.7,7.4-15.3,7.6-16.5c1.4-1.1,6.2,1.4,6,3.2C701.7,249.4,700,251.2,695,261.6z"/>
		<path class="st1" d="M737.4,269.3c1.5,1.2,2.7,2.8,2.2,3.5c-1.1,1.4-1.7,2.4-3.3,6c-1.9,4.3-2.7,6.9-1.2,6.8
			c2.4-0.2,12.3-11.9,14-14.8c0.9-1.4,2.8-0.8,1.9,0.9c-1.7,3.2-8.4,13-12.6,15.8c-3.5,2.4-7.1,0.4-9.1-1.7c-1.3-1.3-0.6-5.3,0.6-8
			c-2,3-6.3,9.1-10.1,11c-1.9,1-7.6-2.5-8-5c-0.6-3.3,2.4-10.7,7.5-16.3c5.3-5.9,9.5-7.6,12.8-8.4c3.7-0.8,11.5,4.5,10.5,7
			C741.9,267.8,739,269.1,737.4,269.3z M736.3,268.6c0.3-1.5,2.2-5,1.1-6c-1.2-1-8,2.7-12.5,8.7c-6.7,8.9-7.7,13.8-6.8,14.1
			c1.7,0.6,13-12,15.8-17C734.2,267.8,735.2,268,736.3,268.6z"/>
		<path class="st1" d="M751.9,277.8c0,0,10.5-14.3,16.1-16c3-0.9,7.7,1.7,6.5,5.3c-2.1,5.8-9.9,19-6.5,18.6
			c2.1-0.2,9.8-8.4,14.1-15.1c1.2-1,2.1,0.1,1.7,1.3c-3.3,6.1-8.9,12.9-12.8,15.6c-3.8,2.7-10.2-0.4-10-4.6
			c0.4-6.9,8.4-17.1,7.1-17.2c-3-0.3-18.4,19.5-19.2,21.7c-1.7,1.7-7.3-0.8-6.6-2.8c0.6-2,9.4-19,10.1-22.4c1.7-1.2,5.6,0.9,5.4,2.7
			C757.5,267.3,751.9,277.8,751.9,277.8z"/>
		<path class="st1" d="M797.4,285.3c1.7-0.9,3.4-2,4.8-3.2c5.5-4.5,8.5-9.9,10.2-11.9c1.4-1.5,2.6-0.5,2.1,1.1
			c-1.2,1.9-4.8,8.6-11.4,13.8c-2.2,1.7-4.9,3.1-7.8,4.5c-4.5,8.6-10.9,16.5-17.9,16.6c-5.9,0.1-9.2-3.4-8.9-5.8
			c0.4-2.8,5.8-5.3,10.1-7.2c3-1.3,6.6-2.4,10.2-3.9c1.5-2.8,2.6-5.5,3.7-8.1c-2.2,2.8-4.9,5.4-7.7,6.9c-2.6,1.4-6.4-2.1-7.2-4.5
			c-0.9-2.6,0.8-7.6,4.1-12.9c3-4.9,6.5-8.4,9.6-10.1c8.1-4.6,15.3,2.2,15.2,5c-0.1,2.4-3.6,4.5-5.5,4.9c1.4,0.6,2.5,1.6,2.6,2.2
			c-0.8,0.6-1.1,0.6-5.3,10.9C797.8,284.2,797.6,284.8,797.4,285.3z M786.2,293.3c-2.7,1-5,1.9-6.7,2.7c-12.9,5.9-6.6,7.1-5.3,7
			c1.2-0.1,5.3-0.9,9.6-6.4C784.7,295.5,785.5,294.4,786.2,293.3z M795,274.5c0.3-0.7,0.8-1.6,1.5-3c0.6-1.3,1.9-1.6,3.2-1.4
			c0.4-1.3,3.7-6,2.2-7.5c-2.7-2.7-10.9,5.6-13.8,10.2c-4.2,6.7-6.3,12.4-5,12.5C784.3,285.4,791.2,279.5,795,274.5z"/>
	</g>
	<g id="Group_9" transform="translate(382.084 195.359) rotate(-8)">
		<g>
			<g>
				<defs>
					<polygon id="SVGID_1_" points="-6.2,3.7 87.4,-9.5 99.7,74.3 6.1,87.5 					"/>
				</defs>
				<clipPath id="SVGID_00000039125466809223003320000017840976814647050898_">
					<use xlink:href="#SVGID_1_"  style="overflow:visible;"/>
				</clipPath>
				
					<g id="Group_8" transform="translate(0 -0.113)" style="clip-path:url(#SVGID_00000039125466809223003320000017840976814647050898_);">
					<path id="Path_7" class="st1" d="M89,51.2c-3.8,0-6.4-3.5-6.6-3.7l1.1-0.9c0,0,2.6,3.4,5.8,3.1c1.9-0.1,3.8-1,5.1-2.4
						c0.1-0.8,0.1-1.6,0.1-2.4C94,36.5,74.7,33.3,71,34.4c-0.6,0.3-0.9,1.1-0.6,1.7c2.3,4,7.6,20.9,7,27.2c0,0.4,0.3,0.8,0.7,0.9
						c0.2,0,0.3,0,0.5-0.1C81.8,62.8,91.4,58,94,49.6c-1.3,0.9-2.9,1.4-4.5,1.6C89.3,51.2,89.1,51.2,89,51.2 M81.2,43.4
						c-0.8-0.3-1-1.5-0.5-2.8c0.5-1.2,1.5-2,2.3-1.7s1,1.5,0.5,2.8C83,42.9,82,43.7,81.2,43.4"/>
					<path id="Path_8" class="st3" d="M76.1,37.3l-0.9-1.6c-2.2-3.8,0-21,4.9-24.5c3.6-2.6,7.3-2.3,8.6-1.1c0.5,0.4,0.6,1.1,0.3,1.6
						c-0.9,1.6-6.4,1.7-8.8,1.3c-3.1,3.4-4.9,13.8-4.4,19.2c1.4-5.6,4.5-15.9,8.8-15.4c2.5,0.2,4.6,2,5.3,4.5c0.2,0.7,0,1.6-0.7,2
						c-0.6,0.3-1.3,0.1-2.1-0.5c-1.4-1.2-2.5-2.7-3.2-4.5c-2.8,0.9-5.9,10.3-7.3,17.2L76.1,37.3z M85.3,18.4c0.3,0.6,0.6,1.1,1,1.6
						c0.5,0.8,1.3,1.4,2.1,1.9c0-0.4-0.1-0.8-0.3-1.2C87.6,19.6,86.6,18.8,85.3,18.4 M81.8,11.8c2.3,0.2,5.1-0.2,5.7-0.7
						c-0.3-0.2-0.5-0.3-0.8-0.3C85,10.5,83.3,10.9,81.8,11.8"/>
					<path id="Path_9" class="st4" d="M70,39.3c-1.2-2.7-2-3.2-2.6-3.4c-1.8-0.3-3.7-0.4-5.6-0.2c-1.8,0.1-3.9,0.2-6.2,0.5
						c-2.4,0.2-5.1,0.6-7.9,1.1c0.4-2.3-0.5-7.4-0.6-8c-2-8.8-10.4-26.4-16.7-28.9c-1.2-0.5-2.5-0.4-3.6,0.3C26,1.2,25.5,2.1,25.3,3
						c-0.6,3.7,4,10,9.4,17.2c2,2.7,4.2,5.7,6.2,8.6c1.9,2.8,3.6,5.6,5.1,8.6c-0.1,0-0.3,0-0.4,0.1C42.3,31.8,22.7,18.1,11.3,13
						c-5-2.2-8.3-2.8-9.9-1.7C0.6,11.9,0,12.9,0,13.9c-0.1,4.1,7.2,9.5,7.3,9.6c10.1,7.2,26.5,12.7,34,14.9
						c-3.5,0.8-6.9,1.7-10.2,2.9c-1.8,0.6-3.7,1.3-5.4,2.1c-2.7,1.2-5.2,2.6-7.4,4.4c-3.7,3-5.5,6.5-5.3,10.2c0.3,5.3,5,9,13.9,11
						c0.5,0.1,1.1,0.2,1.7,0.3c2.4,0.4,4.9,0.7,7.3,0.9c-0.4,2-0.3,4.1,0.1,6.1c0.6,2.7,2.6,4.9,5.2,5.6l0.4-1.4
						c-2.2-0.6-3.8-2.4-4.3-4.6c-0.4-1.9-0.4-3.8-0.1-5.6c2,0.1,4.1,0.2,6.2,0.2c0.7,0,1.4,0,2.1,0C44.8,74.2,45.8,78,48,81l1.1-0.9
						c-2.1-2.7-2.9-6.3-2.2-9.7c2,0,3.9-0.1,5.8-0.3c1.2-0.1,2.3-0.2,3.4-0.3c-0.2,1.1-0.1,2.3,0.2,3.4c0.7,2.9,2.8,5.2,5.6,6.2
						l0.6-1.3c-2.4-0.9-4.1-2.8-4.8-5.2c-0.2-1.1-0.3-2.2-0.1-3.2c1.5-0.2,3-0.4,4.4-0.6c2.4-0.3,4.7-0.8,7.1-1.4
						c2.7-0.7,4.5-1.6,4.9-2.4C76,61.6,72.9,46,70,39.3 M27.1,67.6c-8.2-1.8-12.5-5-12.8-9.7c-0.2-3.2,1.4-6.3,4.7-9
						c1.8-1.4,3.8-2.7,5.9-3.7c-2.1,7.2-0.2,16.9,2.6,22.4C27.4,67.7,27.3,67.7,27.1,67.6 M35.8,19.4c-5-6.7-9.7-13-9.1-16.1
						c0.1-0.6,0.4-1.1,0.9-1.4c0.4-0.3,0.8-0.4,1.2-0.4c0.4,0,0.7,0.1,1.1,0.2C35.7,4,43.8,21.3,45.8,29.5c0.4,1.9,0.6,3.8,0.7,5.7
						C43.7,29.9,39.5,24.3,35.8,19.4 M8.2,22.3c-2.4-1.7-6.8-5.9-6.7-8.4c0-0.6,0.3-1.1,0.8-1.4c0.4-0.2,0.9-0.3,1.3-0.3
						c1.2,0,3.4,0.4,7.2,2.1c12.2,5.4,30,18.4,33.4,23.4C38.7,36.2,19.4,30.4,8.2,22.3 M37.6,69c0.3-1.3,0.8-2.5,1.6-3.5l-1-1
						c-1,1.3-1.7,2.8-2,4.4c-0.5,0-0.9-0.1-1.4-0.1c-3-3.8-4.8-8.3-5.2-13.1c-0.4-4,0.7-9.2,1.4-12.8c3.3-1.1,6.6-2.1,10-2.9
						c-3,9.6,0.1,23.3,3.7,29.2C42.2,69.2,39.9,69.1,37.6,69 M58.1,68.2c0.2-0.5,0.4-1,0.8-1.4l-1.1-0.9c-0.6,0.8-1,1.6-1.2,2.5
						c-1.6,0.2-3.2,0.3-4.8,0.4c-3.6-4.6-5.8-10.2-6.2-16c-0.4-4.4,0.7-10,1.3-14.1c3-0.5,5.8-0.9,8.4-1.2
						c-2.3,9.7,1.8,24.1,5.8,30.3C60.1,68,59.1,68.1,58.1,68.2 M72.8,64.6c-0.3,0.5-2.1,1.2-4.8,1.9c-3-3.3-6.5-7.7-7.1-14.7
						c-0.5-4.9-0.3-9.9,0.7-14.8c0.7,0,1.4,0,2,0c1.2,0,2.4,0.1,3.5,0.3c0,0,0.6,0.2,1.7,2.8C71.7,47,74.4,61.6,72.8,64.6"/>
				</g>
			</g>
		</g>
	</g>
</g>
</svg>
