<?xml version="1.0" encoding="utf-8"?>
<!-- Generator: Adobe Illustrator 26.0.2, SVG Export Plug-In . SVG Version: 6.00 Build 0)  -->
<svg version="1.1" id="Layer_1" xmlns="http://www.w3.org/2000/svg" xmlns:xlink="http://www.w3.org/1999/xlink" x="0px" y="0px"
	 viewBox="0 0 392 51.3" style="enable-background:new 0 0 392 51.3;" xml:space="preserve">
<style type="text/css">
	.st0{fill:#515151;}
	.st1{fill:none;stroke:#515151;stroke-miterlimit:10;}
</style>
<g id="t5">
	<path class="st0" d="M105.6,7c7.8-0.3,13.6,0.6,15.1-0.1c0.5,0.3,0.9,1.4-0.5,1.7c-1.4,0.2-5-0.1-10.3-0.1c0.6,0.4,1.1,1,0.8,1.4
		c-2.8,4.1-5.3,8.3-7.6,12.6c-4.5,8.2-7,15.1-7.2,16.9c-0.1,1.7-3.4-0.3-3.1-1.7c0.5-2.7,6.5-14.6,8.2-17.9
		c1.7-3.1,4.9-9.2,6.6-11.4c-0.5,0-1,0-1.5,0c-9.4,0.7-14.9,3.2-15,6.8c-2.2,0.1-2.9-2.8-1.1-4.6C93.3,7.3,100.7,7.2,105.6,7z"/>
	<path class="st0" d="M139.5,41c-1.1-0.4-3.3-2.4-5.5-5.3c-4.1,2.8-8.6,5.1-12.4,5.8c-6.7,1.2-8.6-2.9-7.1-6.1
		c1.5-2.8,7.5-7.7,12.9-11.8c-0.3-1.1-0.6-2.2-0.8-3.3c-1.5-8.8,5-13.9,8.6-15.4c4.4-1.8,9.6,0.2,9.9,2.8c0.3,3.8-6.6,9.8-13.5,15
		l-0.7,0.5c1.3,3.2,2.9,6.2,4.8,9c4.9-3.7,9.6-9.3,9-10.4s2.7-1.9,2.6,0.7c-0.2,1.9-4.7,6.9-10.5,11.3c2.2,3,4.5,5.4,6.2,6
		C145.6,40.5,142.4,42,139.5,41z M132.8,34.2c-1.9-2.7-3.5-5.7-4.8-8.7c-9.5,7.6-12.7,12.5-10.6,13.9
		C119.7,41,126.4,38.2,132.8,34.2z M130.4,21.4c1.5-1.1,2.8-2.1,3.8-2.9c5.4-4.4,10.3-12,6.3-12.5C134,5,128.7,14,130.4,21.4
		L130.4,21.4z"/>
	<path class="st0" d="M188.4,6.7c1.2,0.4,0.7,1.2-0.5,1.4c-1.3-0.7-8.7-0.6-11.9,0c-2.8,2.1-7.3,9.5-8.3,11.7c4-3.6,14-4.1,16.2,0.1
		c2.6,5.1-5,16.4-13.7,18.7c-5.8,1.6-10.8-2.2-11-4.2c-0.1-1.5,5-5.5,6.7-6.2c0.4,0.1,0.6,0.5,0.6,0.9c-1,1-6.5,7-2.8,7.9
		c8.1,2,23-15.8,15-18.3c-5.2-1.6-10.2,2.7-12.1,4c-1.1,0.8-3.4-1.4-2.5-3.5c1.8-3.9,6.3-10.8,8.9-12.6C174.9,5.4,186,5.9,188.4,6.7
		z"/>
	<path class="st0" d="M200.1,38.6c-0.9-0.2-1.9-0.9-1.5-1.8c0.6-2.4,4.6-11.6,6.6-15.4c1.6-3.8,6.3-13.2,7-14.8
		c0.1-0.2,0.2-0.3,0.3-0.5c-6,1-11.4,4.1-11.4,6.2c-0.4,0.5-1.7-0.3-1.6-1.4c0-1.6,1.4-4,6.8-5.7c7.3-2.3,14.3-0.5,17.3,2.1
		c3.3,2.8,2.3,6.1-0.9,8.8c-2.6,2.2-5.6,3.8-8.9,4.6c3.9-0.5,8.2,0.8,10,3.2c1.2,1.8,1.2,5.5-4.2,9.8c-5.8,4.6-13.7,6.3-17.1,6.1
		C201.5,39.6,200.7,39.2,200.1,38.6z M201.8,37.5c5.4-0.3,10.6-2.3,15-5.5c4.7-3.7,5.2-8,2.2-9.3c-4-1.7-8.8-0.9-11.1-0.4l-0.6,1.3
		C204.5,30.3,202.6,35.6,201.8,37.5z M208.9,20.3c1.6-0.3,3.1-0.7,4.6-1.2c6.2-1.9,9-6,8.5-9.4c-0.4-3.1-4.1-4-7.1-3.9l-1.5,0.1
		c1,0.2,2,1,1.8,1.6C214.3,8.5,211.9,13.5,208.9,20.3L208.9,20.3z"/>
	<path class="st0" d="M240.4,23c0.6,0.6,1,1.4,0.6,1.9c-0.9,1.3-1.6,2.6-2.2,4c-1.2,2.8-1.3,5.4,0.4,5.2c2.2-0.3,8.3-8.2,9.5-10.1
		c0.3-0.2,0.7-0.2,0.9,0.1c0.1,0.1,0.1,0.2,0.2,0.4c-1,1.9-5.7,8.7-8.5,10.6c-2.4,1.6-4.5,0.4-5.8-1c-0.9-0.9-0.6-3.6,0.2-5.4
		c-1.4,2-4.8,6-6.9,7.1c-1.4,0.6-4.1-1-4.4-2.6c-0.4-2.2,1.6-7.1,5-10.9c3.6-3.9,6.3-5.1,8.5-5.6c2.5-0.5,6.3,2,5.7,3.6
		C242.9,21.7,241.8,22.6,240.4,23z M240,22.8c0.1-0.9,1.9-3.5,0.7-4.2c-1.2-0.7-6.2,2.2-8.7,5.6c-4.1,5.6-5.2,9.6-4.2,9.8
		c1.8,0.3,8.9-8,10.7-11.3C238.9,22.3,239.5,22.4,240,22.8L240,22.8z"/>
	<path class="st0" d="M258.2,33.5c1.9,1,3,0.1,3.5-0.5c0.5-0.6,1.5-0.3,0.9,0.5c-1.5,2.4-2.5,2.6-4.2,2.6c-3.5-0.1-7-5.6-7.7-8.7
		l-0.3,0.2c-2,4.6-3.6,8.8-3.6,9.4c0.1,1.3-3.1,0.6-3.1-0.6c0-0.8,4.6-12,8.2-18.9c3.7-7.4,5.7-10.9,6.2-11.9
		c0.9-1.6,4.7-0.7,3.5,0.2c-2.6,4-4.9,8.1-6.9,12.4c-0.8,1.6-1.8,3.6-2.8,5.8c3.7-2.8,9.2-6.4,10.3-6.1c1.6,0.3,1.6,2.1,0.1,2.1
		c-1-0.3-5.8,2.7-9.5,5.5C253.2,27,255.8,32.2,258.2,33.5z"/>
	<path class="st0" d="M266.3,28.9c-0.3,0.8-0.5,1.7-0.6,2.6c-0.2,1.4,0.8,2.7,2.2,3c4.5,0.5,10.3-7.8,12.4-10.5
		c0.5-0.6,1.2-0.4,1.2,0.2c-1.5,3.1-5.8,9.3-9.9,11.4c-2.8,1.5-7.6,0.1-8.7-3.1c-1.8-5,3.8-13.1,7.8-15c3.3-1.6,7,1.8,6.7,3.9
		C277,23.8,270.2,27.3,266.3,28.9z M267.1,26.9c4.3-2.4,9.5-6.7,7.3-7.8C273.2,18.4,269.3,22.6,267.1,26.9L267.1,26.9z"/>
	<path class="st0" d="M289.1,19.2c1.5,0.4,2.9,1,1.3,3c-2.4,3.2-6.3,11.6-3.8,12.1c1.4,0.3,7.9-7.6,9.5-10.1
		c0.3-0.3,1.2-0.3,1.1,0.4c-1.1,2.4-5.7,8.4-8.6,10.6c-2,1.5-5.7,0.4-6-2.4c-0.6-3.6,3.2-9.6,4.2-11.5c0.6-1-0.8-1.1-2.2-1.4
		c-1.2,1.8-3.4,5.1-5.1,7.6c-0.6,0.5-1.5,0-1.3-0.6c0.9-1.4,3.7-5.5,4.8-7.4c-0.3-0.1-0.5-0.3-0.5-0.6c-0.5-1.5,1.7-5.8,2.8-6.2
		c0.7-0.3,2.2,0.9,2,1.8c-0.5,1.6-1.1,3.2-2,4.7C286.5,19,287.8,19,289.1,19.2z"/>
	<path class="st0" d="M303.7,37.6c3.8-0.3,7-0.3,8,0.1s0.6,0.8-0.2,1.1c-0.7-0.3-4.6-0.2-8.9,0.4c-3.5,4.7-8.2,8.5-12.8,8.5
		c-2.9,0-5.9-2.2-4.9-4.2c1.2-2.5,8.4-4.5,15.1-5.5c1.7-2.4,3.1-5,4.2-7.7c0.4-0.9,0.9-1.9,1.3-3c-2.6,3.5-6.4,7.9-7.9,8.1
		s-5-0.9-4.8-3.3c0.5-4.8,5.4-12.6,6.4-14c0.7-1,3.6-0.2,3.6,0.9c-1.8,2.5-3.4,5.2-4.7,8c-1.7,3.5-2.9,6.9-1.5,7
		c0.7,0.1,4-3.3,7.2-7c2.1-2.5,4-5.2,5.7-8c1.1-2.2,3.3-0.6,3.5,0.4c-0.5,0.4-3.4,5.9-6.2,12.8C305.8,34.2,304.9,36,303.7,37.6z
		 M298.5,40c-1.4,0.3-2.8,0.6-4.1,1.1c-6.2,2.2-8.4,4.7-6,5c2.1,0.3,5-0.4,9.5-5.3L298.5,40z"/>
</g>
<g>
	<path class="st1" d="M4.5,34.8C0.8,39.6,0.6,45.7,3.3,45c12.5-3.4,58.1-26.5,64.2-30.1C89.1,2.2,69,2.1,60,5c-5.1,1.6-6,9-8.7,11
		c-1.7,1.3,1.5-7.1,1.3-8.1c-0.4-1.9-8.7,2.5-10.9,4.5c-2.2,2-3.8,9.2-6.8,10.4c-1,0.4,3.4-8.5,0.7-8.2c-3.8,0.4-8.6,3.2-10.3,5.8
		s-3.8,9.7-6,10.3c-1.3,0.3,2.6-8.3-1.7-7.1C14,24.6,8.5,29.7,4.5,34.8z"/>
	<path class="st1" d="M29,17c-2.5,1.1-9.1,6-9.7,6.9"/>
	<path class="st1" d="M46,9.6c-2.5,1.3-9,5.2-9.5,6.1"/>
	<path class="st1" d="M61.6,4.6c-2.7,0.7-8.2,2.6-8.9,3.3"/>
</g>
<path class="st0" d="M388,15.9c0.6-1.5,0.3-2.6-1-3.3c0-1.4-0.9-2.3-2.7-2.5c-3.4-0.5-9.8,1.3-15.5,4.6c-5,2.8-7.8,5.5-11,8.6
	c-3.6,3.4-7.7,7.3-15.8,12.6l-24.7,12.8c0,0-0.6,0.3-0.5,0.5c0.1,0.2,0.7-0.1,0.7-0.1L342,36.3l0,0c9.2-3.9,14.9-5.1,20-6.3
	c4.6-1,8.5-1.9,13.7-4.3C381.9,22.8,386.8,18.8,388,15.9z M386,12.8l-35.6,18.6c3-2,5.6-4,8.4-6c3.7-2.8,7.5-5.6,12.3-8.5
	c3.9-2.4,10.1-4.5,13.2-4.5C385.2,12.3,385.7,12.5,386,12.8z M386.3,13.2c0.1,0.3,0,0.8-0.4,1.4c-1.8,2.7-8.5,7.3-13.6,9.4
	c-5.4,2.2-9.6,3.6-13.2,4.7c-2.7,0.9-5.2,1.7-7.9,2.8L386.3,13.2z M369.1,15c5.4-3.1,11.5-4.9,14.7-4.4c1.1,0.2,1.8,0.6,2.1,1.2
	c0,0,0,0,0,0.1c-0.4-0.1-0.8-0.2-1.3-0.2c-3.2,0-9.7,2.2-13.8,4.7c-4.9,2.9-8.7,5.8-12.4,8.6c-3.6,2.7-7.1,5.3-11.3,7.8
	c5.2-3.7,8.4-6.7,11.2-9.5C361.5,20.4,364.3,17.8,369.1,15z M375.6,25.2c-5,2.4-8.9,3.3-13.4,4.2c-4.1,0.9-8.6,1.9-14.9,4.2
	c4.4-2,7.9-3.2,11.9-4.4c3.7-1.2,7.8-2.5,13.3-4.8c5.4-2.2,12.2-7,14.1-9.9c0.2-0.4,0.4-0.7,0.5-1c0.5,0.6,0.6,1.4,0.2,2.3
	C386.1,18.7,381.3,22.5,375.6,25.2z"/>
</svg>
