<?xml version="1.0" encoding="utf-8"?>
<!-- Generator: Adobe Illustrator 26.0.2, SVG Export Plug-In . SVG Version: 6.00 Build 0)  -->
<svg version="1.1" id="Layer_1" xmlns="http://www.w3.org/2000/svg" xmlns:xlink="http://www.w3.org/1999/xlink" x="0px" y="0px"
	 viewBox="0 0 151 64" style="enable-background:new 0 0 151 64;" xml:space="preserve">
<style type="text/css">
	.st0{enable-background:new    ;}
	.st1{fill:#7D8280;}
</style>
<g class="st0">
	<path class="st1" d="M9,43.2c0.4-0.5,4.9-6,12.5-16.1c3.8-5.2,10.2-13.4,12.9-17.9c1.3-2.3,5.6,0.5,6,2.8c-1.4,2-6.6,28.3-6.6,29.2
		c0.4-0.7,6.1-9.1,18.1-24.1c8.4-10.6,16-16.6,18.8-16.9c1.5-0.1,2.1,0.4,2.1,1.7C70.3,2,61.7,10.6,53.7,20.5
		c-9.4,11.6-18.4,24.4-19.6,27.1c-0.9,2.6-8.4-0.7-7.6-2.8c1-2.3,2.7-13.2,5.6-26.6C20.8,34.1,10.8,46,9.6,48.6
		c-0.9,2.6-8.6-0.7-7.7-2.8c1.7-4,10.4-38.5,8.6-41.6c0.7-1.9,6-1.7,6.7,1.7C18.2,11.9,9.8,41.5,9,43.2z"/>
	<path class="st1" d="M72.6,21.2c2.2,0.1,4.7,1.3,4.6,4.9c-0.1,2-1.7,6.7-4.4,10.8c4.9-0.5,10.2-9.1,10.9-10
		c0.7-1.1,2.1-0.5,1.5,0.8c-0.6,1-3.6,7.4-8.5,10.3c-1.7,1-3.7,1.5-5.6,1.3c-1.7,2.2-3.8,4-5.9,4.9c-4.2,1.7-10.7-2.6-11.1-7.4
		c-0.7-7.2,5.6-18.2,12.2-19c2.3-0.3,5.6,1.5,6.3,3C72.6,21,72.6,21.1,72.6,21.2z M63.2,26.8c-2.4,3.8-4.3,8.8-4.1,12.9
		c0.2,3.3,2.4,2.1,3.8,1.1c1.2-0.8,2.5-2,3.7-3.5c-0.4-0.4-0.7-0.8-1-1.3c-1.5-2.2-1.5-4.8-0.9-7.2c0.7-2.8,3.5-7.4,7.1-7.6
		C68,20.6,65.4,23.4,63.2,26.8z M68.2,35.4c2.6-3.4,4.8-7.5,5.1-11c0.2-2-2.1-1.5-4,1.1C67.2,28.6,66.3,33,68.2,35.4z"/>
	<path class="st1" d="M95,20.8c2,0.2,4.9,2.1,2.8,4.8c-3.2,4.2-7.4,14.4-5.9,15c1.6,0.6,10.5-9.8,12.7-13.1c1-1.3,2.1-0.6,1.7,0.8
		c-1.5,3.5-7.6,11.2-11.5,14.1c-2.6,2-8.3,0.2-8.8-3.5c-0.8-4.8,4.3-12.5,5.6-15c0.6-1.1-0.6-1.4-2.2-1.7c-1.3,2.4-4.6,6.7-6.8,9.9
		c-1,1.3-2.4,0.1-2.1-0.8c1.7-2.3,4.9-7.2,6.2-9.7c-0.8-0.2-1.3-0.5-1.5-1c-0.7-2,2.2-7.7,3.7-8.3c1.7-0.7,4.2,1.2,4,2.4
		s-1.8,4.5-2.8,6C90,20.8,92.1,20.6,95,20.8z"/>
	<path class="st1" d="M117.9,39.1c2.4,0.1,7-5.6,9.2-8.5c1.2-1.8,2.6-0.5,1.8,1c-2.4,3.8-6.9,9.7-10.4,10.6c-1.9,0.5-5.6,1-8.4-3.6
		c-1.3-2.2-1.7-5-1.7-6.7c-0.1,0-0.1,0.1-0.1,0.1c-2.6,6-4.9,11.6-4.9,12.4c-1.3,1.3-5.3,0.4-5.2-1.8c0.1-1.6,5.7-15,10.4-24.2
		c5-9.8,7.4-14.7,8.3-15.8c1.7-2.1,6.3-0.8,6.2,0.8c-0.8,0.7-4.4,7.1-9.1,16.6c-1,2-2.2,4.4-3.3,7c4.3-3.5,9.8-7.4,12.2-7.6
		c1.5-0.1,1.9,2.5,1,2.9c-1.3-0.1-6.1,2.8-10.5,5.9h0.1C113.6,30.7,115.2,39.1,117.9,39.1z"/>
	<path class="st1" d="M131.7,24.1c0.3-1.2,0.8-2.2,1.6-3.2c1.7-2.2,3.8-4.1,6.1-4.1c3,0,4,3.9,3.1,4.5c-1.7-0.1-5.6,1.3-5.6,5.8
		c0,3.6,2.6,7.5,2.1,11c4-2.9,8.4-9.2,9.8-10.9c1-1.2,2.3-0.4,1.5,1c-1.7,2.8-5.4,8.6-10.3,12.3c-4.7,3.6-12.9,4.7-18.6,0.4
		c-2-1.5-3.3-4.4,1.2-5.3C125.4,32.6,129.1,27.5,131.7,24.1z M126.4,34.8c1.7-0.3,3.3-0.3,3.7-0.1c0.4,0.2,0.4,0.8,0.1,1.2
		c-1.8,0-5.7,2.4-6,3.8c0.4,1,3.1,1.5,6.3,1.4c0.4-0.2,0.8-0.5,1.3-1c2.4-2.4,0.8-7.6,0-10c-0.2-0.6-0.4-1.2-0.4-1.8
		C129.8,30.4,128,32.7,126.4,34.8z"/>
</g>
</svg>
