<svg id="Layer_1" data-name="Layer 1" xmlns="http://www.w3.org/2000/svg" viewBox="0 0 118.43 46.26"><defs><style>.cls-1{fill:#7e8280;}</style></defs><path class="cls-1" d="M159.11,260.12c.36-.48,4.56-5.58,11.7-15.12,3.6-4.86,9.6-12.6,12.06-16.8,1.26-2.16,5.22.48,5.64,2.58-1.26,2-6.12,26.64-6.12,27.48.42-.66,5.7-8.52,17-22.62,7.86-9.9,15-15.6,17.63-15.84,1.38-.12,2,.42,2,1.56-2.46.12-10.49,8.22-17.93,17.46-8.82,10.92-17.28,22.92-18.36,25.38-.84,2.4-7.92-.66-7.08-2.64.9-2.16,2.52-12.42,5.28-24.9-10.74,14.88-20.1,26-21.18,28.5-.84,2.4-8.1-.66-7.26-2.58,1.56-3.72,9.78-36.12,8-39,.66-1.8,5.64-1.62,6.24,1.62C167.75,230.78,159.83,258.5,159.11,260.12Z" transform="translate(-152.38 -219.78)"/><path class="cls-1" d="M218.69,239.48c2.1.12,4.44,1.26,4.32,4.62-.06,1.92-1.62,6.24-4.14,10.08,4.56-.48,9.6-8.52,10.26-9.42s2-.48,1.38.78c-.6,1-3.36,7-8,9.66a8.61,8.61,0,0,1-5.22,1.2,15,15,0,0,1-5.52,4.56c-3.9,1.56-10-2.46-10.44-6.9-.66-6.72,5.28-17.1,11.4-17.82,2.16-.24,5.28,1.44,5.88,2.82C218.69,239.3,218.75,239.42,218.69,239.48Zm-8.76,5.22c-2.28,3.54-4,8.22-3.84,12.12.18,3.06,2.22,2,3.54,1a21.25,21.25,0,0,0,3.48-3.24,6.48,6.48,0,0,1-1-1.2,8.17,8.17,0,0,1-.84-6.78c.66-2.58,3.24-7,6.66-7.14C214.37,238.88,212,241.52,209.93,244.7Zm4.68,8.1c2.46-3.18,4.5-7,4.8-10.32.18-1.86-2-1.44-3.72,1C213.65,246.38,212.81,250.58,214.61,252.8Z" transform="translate(-152.38 -219.78)"/><path class="cls-1" d="M239.69,239.12c1.92.18,4.56,2,2.58,4.5-3,4-7,13.5-5.52,14s9.84-9.18,11.88-12.3c1-1.2,2-.54,1.56.72-1.44,3.24-7.14,10.5-10.74,13.26-2.46,1.86-7.74.18-8.22-3.3-.78-4.5,4-11.76,5.28-14,.6-1-.6-1.32-2.1-1.56-1.26,2.28-4.32,6.24-6.42,9.3a1.07,1.07,0,0,1-2-.72c1.56-2.16,4.56-6.72,5.82-9.06-.72-.18-1.26-.48-1.38-1-.66-1.92,2.1-7.26,3.48-7.8,1.62-.66,3.9,1.08,3.72,2.22a23.86,23.86,0,0,1-2.58,5.58C235.07,239.12,237,238.88,239.69,239.12Z" transform="translate(-152.38 -219.78)"/><path class="cls-1" d="M241.79,259.88c.06-1.5,5.58-14.52,10-23.1,4.68-9.18,6.9-13.8,7.74-14.82,1.62-2,5.94-.72,5.82.78-.72.66-4.08,6.66-8.52,15.54-.9,1.86-2,4.2-3.18,6.72,4.26-3.48,9.9-7.44,12.18-7.56,1.38-.06,1.74,2.46.9,2.82-1.38-.06-7.26,3.42-11.94,6.84,1.08,2.64,7.2,10.2,10.38,11.28a3.28,3.28,0,0,0,4.2-1.08c.78-.84,2-.3,1.26.78-1.92,2.94-3.9,4.5-6,4.44-2.28-.06-6.3-2.22-10.32-7.08a15.73,15.73,0,0,1-2.94-5.4c-2.46,5.64-4.62,10.8-4.62,11.52C245.51,262.76,241.73,261.92,241.79,259.88Z" transform="translate(-152.38 -219.78)"/></svg>